# xmcd
#
# Track frame offsets:
#	150
#	7474
#	21597
#	34581
#	44843
#	59255
#	72928
#	86555
#	101450
#	111531
#	125528
#	131889
#	147438
#	159292
#	170150
#	181197
#
# Disc length: 2633 seconds
#
# Revision: 1
# Processed by: cddbd v1.5.2PL0 Copyright (c) Steve Scherf et al.
# Submitted via: audiograbber 1.83.01
#
DISCID=f20a4710
DTITLE=Red Hot Piping - Simply The Best Bagpipe Music
DYEAR=1900
DGENRE=Folk
TTITLE0=We Will Rock You
TTITLE1=Penny Arcade
TTITLE2=Unchained Melody
TTITLE3=Oh Boy
TTITLE4=Highland Cathedral
TTITLE5=The Rebel Piper
TTITLE6=Hasten&Come With Me
TTITLE7=In Dulci Jubile
TTITLE8=Amazing Grace
TTITLE9=Singing The Blues
TTITLE10=Muckin' O' Geordie's Byre
TTITLE11=Marching Troopers
TTITLE12=Peggy Sue
TTITLE13=Singing In The Rain
TTITLE14=Westering Home
TTITLE15=Orcadia
EXTD=
EXTT0=
EXTT1=
EXTT2=
EXTT3=
EXTT4=
EXTT5=
EXTT6=
EXTT7=
EXTT8=
EXTT9=
EXTT10=
EXTT11=
EXTT12=
EXTT13=
EXTT14=
EXTT15=
PLAYORDER=
